<svg width="519" height="587" viewBox="0 0 519 587" fill="none" xmlns="http://www.w3.org/2000/svg">
<path d="M30.1206 538.21C23.423 534.876 17.1953 526.54 15.9028 515.611C14.9628 507.461 16.8428 498.755 14.8453 491.161C13.0827 484.307 8.73513 480.047 5.56255 474.49C-3.01515 459.301 -0.430081 432.256 10.4977 421.698C16.4903 415.956 24.128 414.659 28.9456 406.694C33.4107 399.47 34.2332 388.541 36.8183 379.465C40.3434 367.24 47.7461 357.608 56.2062 356.867C64.6665 355.94 73.4791 365.387 74.8892 378.539C75.5942 385.207 74.5367 392.061 75.1242 398.729C76.2992 410.955 82.7619 420.031 88.2845 428.922C93.8071 437.814 98.9772 449.854 96.8622 461.709C95.3347 470.044 90.2821 476.712 89.9295 485.418C89.6945 492.643 92.7496 499.126 93.8071 506.164C95.9222 521.168 88.167 535.987 79.0018 541.174C70.3066 545.99 61.3764 544.137 52.5637 542.285C45.2785 540.618 37.4058 541.915 30.1206 538.21Z" fill="url(#paint0_linear)"/>
<path d="M67.7215 450.78L65.6065 447.26L52.3286 467.821V424.662H49.2736V513.759L33.1757 477.639L30.7081 480.417L49.2736 522.095V586H52.3286V474.49L67.7215 450.78Z" fill="#18516B"/>
<path d="M265.831 280.365H80.1768V586.185H265.831V280.365Z" fill="#70BEF2"/>
<path d="M341.973 280.365H265.831V586.185H341.973V280.365Z" fill="#0088DB"/>
<path d="M265.831 313.707H94.2771V342.418H265.831V313.707Z" fill="#0049BF"/>
<path d="M326.815 313.707H265.831V342.418H326.815V313.707Z" fill="#0049BF"/>
<path d="M265.831 379.465H94.2771V408.176H265.831V379.465Z" fill="#0049BF"/>
<path d="M326.815 379.465H265.831V408.176H326.815V379.465Z" fill="#0049BF"/>
<path d="M265.831 445.223H94.2771V473.934H265.831V445.223Z" fill="#0049BF"/>
<path d="M326.815 445.223H265.831V473.934H326.815V445.223Z" fill="#0049BF"/>
<path d="M265.831 308.15H94.2771V336.861H265.831V308.15Z" fill="#EEFFFF"/>
<path d="M326.815 308.15H265.831V336.861H326.815V308.15Z" fill="#C8E8E2"/>
<path d="M265.831 373.908H94.2771V402.619H265.831V373.908Z" fill="#EEFFFF"/>
<path d="M326.815 373.908H265.831V402.619H326.815V373.908Z" fill="#C8E8E2"/>
<path d="M265.831 439.666H94.2771V468.377H265.831V439.666Z" fill="#EEFFFF"/>
<path d="M326.815 439.666H265.831V468.377H326.815V439.666Z" fill="#C8E8E2"/>
<path d="M296.499 504.683C292.034 504.683 288.391 510.425 288.391 517.464V586H304.607V517.464C304.607 510.425 300.964 504.683 296.499 504.683Z" fill="#0049BF"/>
<path d="M321.527 504.683C317.062 504.683 313.42 510.425 313.42 517.464V586H329.635V517.464C329.635 510.425 325.992 504.683 321.527 504.683Z" fill="#0049BF"/>
<path d="M293.679 504.683C289.214 504.683 285.571 510.425 285.571 517.464V586H301.787V517.464C301.787 510.425 298.144 504.683 293.679 504.683Z" fill="#00B7B2"/>
<path d="M318.707 504.683C314.242 504.683 310.599 510.425 310.599 517.464V586H326.815V517.464C326.815 510.425 323.172 504.683 318.707 504.683Z" fill="#00B7B2"/>
<path d="M163.839 230.167H103.677V280.365H163.839V230.167Z" fill="#EEFFFF"/>
<path d="M184.989 230.167H163.839V280.365H184.989V230.167Z" fill="#0088DB"/>
<path d="M278.286 230.167H218.125V280.365H278.286V230.167Z" fill="#EEFFFF"/>
<path d="M299.437 230.167H278.286V280.365H299.437V230.167Z" fill="#0088DB"/>
<path d="M139.633 531.727H111.903V586H139.633V531.727Z" fill="#00B7B2"/>
<path d="M139.633 531.727V513.759H97.4496V586H111.902V531.727H139.633Z" fill="#67E5D3"/>
<path d="M139.633 513.759V531.727V586H154.204V531.727H181.817V513.759H139.633Z" fill="#67E5D3"/>
<path d="M181.934 531.727H128.353V586H181.934V531.727Z" fill="#00B7B2"/>
<g opacity="0.63">
<path opacity="0.63" d="M174.061 337.047L186.987 308.15H169.949L157.141 337.047H174.061Z" fill="white"/>
<path opacity="0.63" d="M157.494 373.908H140.573L127.648 402.804H144.568L157.494 373.908Z" fill="white"/>
<path opacity="0.63" d="M111.08 439.666L98.1547 468.562H115.075L128 439.666H111.08Z" fill="white"/>
<path opacity="0.63" d="M326.815 337.047V315.004L316.945 337.047H326.815Z" fill="white"/>
<path opacity="0.63" d="M287.452 402.804H304.489L317.297 373.908H300.377L287.452 402.804Z" fill="white"/>
<path opacity="0.63" d="M265.831 451.15L258.076 468.562H265.831V451.15Z" fill="white"/>
<path opacity="0.63" d="M270.884 439.666L265.831 451.15V468.562H274.996L287.921 439.666H270.884Z" fill="white"/>
<path opacity="0.63" d="M192.039 337.047L204.965 308.15H201.322L188.397 337.047H192.039Z" fill="white"/>
<path opacity="0.63" d="M171.829 373.908L159.021 402.804H162.664L175.471 373.908H171.829Z" fill="white"/>
<path opacity="0.63" d="M142.453 439.666L129.528 468.562H133.17L146.096 439.666H142.453Z" fill="white"/>
<path opacity="0.63" d="M320.587 439.666L307.779 468.562H311.422L324.347 439.666H320.587Z" fill="white"/>
<path opacity="0.63" d="M238.335 337.047L251.143 308.15H228.465L215.657 337.047H238.335Z" fill="white"/>
<path opacity="0.63" d="M199.089 373.908L186.164 402.804H208.842L221.767 373.908H199.089Z" fill="white"/>
<path opacity="0.63" d="M169.596 439.666L156.671 468.562H179.349L192.274 439.666H169.596Z" fill="white"/>
<path opacity="0.63" d="M254.551 337.047L265.831 311.855V308.15H263.011L250.086 337.047H254.551Z" fill="white"/>
<path opacity="0.63" d="M265.831 311.855L267.476 308.15H265.831V311.855Z" fill="white"/>
<path opacity="0.63" d="M233.518 373.908L220.593 402.804H225.058L237.983 373.908H233.518Z" fill="white"/>
<path opacity="0.63" d="M204.025 439.666L191.217 468.562H195.564L208.49 439.666H204.025Z" fill="white"/>
<path opacity="0.63" d="M264.656 337.047L265.831 334.453V324.636L260.191 337.047H264.656Z" fill="white"/>
<path opacity="0.63" d="M265.831 334.453L277.581 308.15H273.116L265.831 324.636V334.453Z" fill="white"/>
<path opacity="0.63" d="M243.623 373.908L230.815 402.804H235.163L248.088 373.908H243.623Z" fill="white"/>
<path opacity="0.63" d="M214.247 439.666L201.322 468.562H205.787L218.595 439.666H214.247Z" fill="white"/>
<path opacity="0.63" d="M287.334 337.047L300.259 308.15H295.794L282.869 337.047H287.334Z" fill="white"/>
<path opacity="0.63" d="M265.831 375.205L253.493 402.804H257.958L265.831 385.207V375.205Z" fill="white"/>
<path opacity="0.63" d="M265.831 385.207L270.766 373.908H266.301L265.831 375.205V385.207Z" fill="white"/>
<path opacity="0.63" d="M236.925 439.666L224 468.562H228.465L241.39 439.666H236.925Z" fill="white"/>
<path opacity="0.63" d="M129.293 337.047L142.218 308.15H137.871L124.945 337.047H129.293Z" fill="white"/>
<path opacity="0.63" d="M108.377 373.908L95.5697 402.804H99.9173L112.725 373.908H108.377Z" fill="white"/>
<path opacity="0.63" d="M131.643 308.15H108.847L95.9222 337.047H118.718L131.643 308.15Z" fill="white"/>
<path opacity="0.63" d="M94.2771 373.908V391.505L102.15 373.908H94.2771Z" fill="white"/>
</g>
<path d="M221.533 513.759L207.785 544.323H221.768L235.515 513.759H221.533Z" fill="#EEFFFF"/>
<path d="M240.685 513.759L227.055 544.323H233.753L247.501 513.759H240.685Z" fill="#EEFFFF"/>
<path d="M251.731 515.982L239.04 544.323H251.731V515.982Z" fill="#EEFFFF"/>
<path d="M202.732 513.759V544.323H207.785L221.532 513.759H202.732Z" fill="white"/>
<path d="M235.515 513.759L221.767 544.323H227.055L240.685 513.759H235.515Z" fill="white"/>
<path d="M251.731 513.759H247.501L233.753 544.323H239.04L251.731 515.982V513.759Z" fill="white"/>
<path d="M425.927 171.896H319V582.929H425.927V171.896Z" fill="#00D4BB"/>
<path d="M473.281 171.896H425.81V582.929H473.281V171.896Z" fill="#0049BF"/>
<path d="M418.172 72.2409H328.988V171.526H418.172V72.2409Z" fill="#00D4BB"/>
<path d="M462.706 72.2409H418.172V171.526H462.706V72.2409Z" fill="#0049BF"/>
<path d="M364.474 523.654H332.983V582.743H364.474V523.654Z" fill="#0049BF"/>
<path d="M391.969 523.654H372.346V558.663H391.969V523.654Z" fill="#C8E8E2"/>
<path d="M411.709 523.654H392.087V558.663H411.709V523.654Z" fill="#C8E8E2"/>
<path d="M449.545 523.654H433.918V558.663H449.545V523.654Z" fill="#C8E8E2"/>
<path d="M465.173 523.654H449.545V558.663H465.173V523.654Z" fill="#C8E8E2"/>
<path d="M384.684 0.370453C360.713 2.59325 341.678 33.8977 341.678 72.2409H427.69C427.69 33.8977 408.655 2.59325 384.684 0.370453Z" fill="#70BEF2"/>
<path d="M372.111 97.0622H359.186V117.994H372.111V97.0622Z" fill="#C8E8E2"/>
<path d="M387.974 97.0622H375.049V117.994H387.974V97.0622Z" fill="#C8E8E2"/>
<path d="M356.131 122.81H343.206V143.741H356.131V122.81Z" fill="#C8E8E2"/>
<path d="M403.954 97.0622H391.029V117.994H403.954V97.0622Z" fill="#C8E8E2"/>
<path d="M356.131 97.0622H343.206V117.994H356.131V97.0622Z" fill="#C8E8E2"/>
<path d="M356.131 148.557H343.206V169.488H356.131V148.557Z" fill="#C8E8E2"/>
<path d="M372.111 122.81H359.186V143.741H372.111V122.81Z" fill="#C8E8E2"/>
<path d="M387.974 122.81H375.049V143.741H387.974V122.81Z" fill="#C8E8E2"/>
<path d="M403.954 148.557H391.029V169.488H403.954V148.557Z" fill="#C8E8E2"/>
<path d="M387.974 148.557H375.049V169.488H387.974V148.557Z" fill="#C8E8E2"/>
<path d="M403.954 122.81H391.029V143.741H403.954V122.81Z" fill="#C8E8E2"/>
<path d="M372.111 148.557H359.186V169.488H372.111V148.557Z" fill="#C8E8E2"/>
<path d="M359.186 174.304H372.111H375.166H388.092H391.147H407.01V148.557V143.741V122.81V117.994V92.2461H391.147H388.092H375.166H372.111H359.186H356.131H340.268V117.994V122.81V143.741V148.557V174.304H356.131H359.186ZM343.205 97.0622H356.131V117.994H343.205V97.0622ZM359.186 97.0622H372.111V117.994H359.186V97.0622ZM375.049 97.0622H387.974V117.994H375.049V97.0622ZM391.029 97.0622H403.954V117.994H391.029V97.0622ZM403.837 169.488H390.912V148.557H403.837V169.488ZM387.974 169.488H375.049V148.557H387.974V169.488ZM372.111 169.488H359.186V148.557H372.111V169.488ZM359.186 122.81H372.111V143.741H359.186V122.81ZM387.974 143.741H375.049V122.81H387.974V143.741ZM403.837 143.741H390.912V122.81H403.837V143.741ZM343.205 122.81H356.131V143.741H343.205V122.81ZM343.205 148.557H356.131V169.488H343.205V148.557Z" fill="#EEFFFF"/>
<path d="M351.196 312.859H334.51V336.013H351.196V312.859Z" fill="#C8E8E2"/>
<path d="M351.196 229.133H334.51V252.288H351.196V229.133Z" fill="#C8E8E2"/>
<path d="M390.559 201.348H373.874V224.503H390.559V201.348Z" fill="#C8E8E2"/>
<path d="M351.196 257.104H334.51V280.258H351.196V257.104Z" fill="#C8E8E2"/>
<path d="M351.196 201.348H334.51V224.503H351.196V201.348Z" fill="#C8E8E2"/>
<path d="M370.936 201.348H354.251V224.503H370.936V201.348Z" fill="#C8E8E2"/>
<path d="M351.196 284.889H334.51V308.043H351.196V284.889Z" fill="#C8E8E2"/>
<path d="M351.196 340.644H334.51V363.798H351.196V340.644Z" fill="#C8E8E2"/>
<path d="M351.196 424.369H334.51V447.523H351.196V424.369Z" fill="#C8E8E2"/>
<path d="M351.196 480.124H334.51V503.278H351.196V480.124Z" fill="#C8E8E2"/>
<path d="M351.196 452.154H334.51V475.308H351.196V452.154Z" fill="#C8E8E2"/>
<path d="M351.196 396.399H334.51V419.553H351.196V396.399Z" fill="#C8E8E2"/>
<path d="M351.196 368.614H334.51V391.768H351.196V368.614Z" fill="#C8E8E2"/>
<path d="M390.559 424.369H373.874V447.523H390.559V424.369Z" fill="#C8E8E2"/>
<path d="M370.936 452.154H354.251V475.308H370.936V452.154Z" fill="#C8E8E2"/>
<path d="M370.936 424.369H354.251V447.523H370.936V424.369Z" fill="#C8E8E2"/>
<path d="M390.559 452.154H373.874V475.308H390.559V452.154Z" fill="#C8E8E2"/>
<path d="M370.936 368.614H354.251V391.768H370.936V368.614Z" fill="#C8E8E2"/>
<path d="M370.936 396.399H354.251V419.553H370.936V396.399Z" fill="#C8E8E2"/>
<path d="M370.936 480.124H354.251V503.278H370.936V480.124Z" fill="#C8E8E2"/>
<path d="M390.559 396.399H373.874V419.553H390.559V396.399Z" fill="#C8E8E2"/>
<path d="M390.559 229.133H373.874V252.288H390.559V229.133Z" fill="#C8E8E2"/>
<path d="M390.559 257.104H373.874V280.258H390.559V257.104Z" fill="#C8E8E2"/>
<path d="M390.559 312.859H373.874V336.013H390.559V312.859Z" fill="#C8E8E2"/>
<path d="M390.559 284.889H373.874V308.043H390.559V284.889Z" fill="#C8E8E2"/>
<path d="M390.559 368.614H373.874V391.768H390.559V368.614Z" fill="#C8E8E2"/>
<path d="M390.559 340.644H373.874V363.798H390.559V340.644Z" fill="#C8E8E2"/>
<path d="M410.3 368.614H393.614V391.768H410.3V368.614Z" fill="#C8E8E2"/>
<path d="M410.3 284.889H393.614V308.043H410.3V284.889Z" fill="#C8E8E2"/>
<path d="M370.936 312.859H354.251V336.013H370.936V312.859Z" fill="#C8E8E2"/>
<path d="M410.3 229.133H393.614V252.288H410.3V229.133Z" fill="#C8E8E2"/>
<path d="M410.3 257.104H393.614V280.258H410.3V257.104Z" fill="#C8E8E2"/>
<path d="M390.559 480.124H373.874V503.278H390.559V480.124Z" fill="#C8E8E2"/>
<path d="M370.936 284.889H354.251V308.043H370.936V284.889Z" fill="#C8E8E2"/>
<path d="M370.936 229.133H354.251V252.288H370.936V229.133Z" fill="#C8E8E2"/>
<path d="M370.936 257.104H354.251V280.258H370.936V257.104Z" fill="#C8E8E2"/>
<path d="M410.3 201.348H393.614V224.503H410.3V201.348Z" fill="#C8E8E2"/>
<path d="M390.559 196.532H373.874H370.819H354.133H351.078H331.455V224.317V229.133V252.288V257.104V280.258V285.074V308.228V313.044V336.198V341.014V364.168V368.984V392.139V396.955V420.109V424.925V448.079V452.895V475.308V480.124V507.909H351.078H354.133H370.819H373.874H390.559H393.614H413.237V480.124V475.308V452.154V447.338V424.184V419.368V396.214V391.398V368.244V363.427V340.273V335.457V312.303V307.487V284.333V279.517V256.363V251.547V228.392V223.576V195.791H393.614H390.559V196.532ZM410.3 503.093H393.614V479.939H410.3V503.093ZM390.559 503.093H373.874V479.939H390.559V503.093ZM370.936 503.093H354.251V479.939H370.936V503.093ZM351.196 503.093H334.51V479.939H351.196V503.093ZM334.51 201.348H351.196V224.503H334.51V201.348ZM354.251 201.348H370.936V224.503H354.251V201.348ZM373.874 201.348H390.559V224.503H373.874V201.348ZM390.559 252.288H373.874V229.133H390.559V252.288ZM390.559 280.258H373.874V257.104H390.559V280.258ZM390.559 308.043H373.874V284.889H390.559V308.043ZM390.559 336.013H373.874V312.859H390.559V336.013ZM390.559 363.798H373.874V340.644H390.559V363.798ZM390.559 391.583H373.874V368.429H390.559V391.583ZM390.559 419.553H373.874V396.399H390.559V419.553ZM390.559 447.338H373.874V424.184H390.559V447.338ZM390.559 475.308H373.874V452.154H390.559V475.308ZM354.251 452.154H370.936V475.308H354.251V452.154ZM354.251 424.369H370.936V447.523H354.251V424.369ZM354.251 396.399H370.936V419.553H354.251V396.399ZM354.251 368.614H370.936V391.768H354.251V368.614ZM354.251 340.644H370.936V363.798H354.251V340.644ZM354.251 312.859H370.936V336.013H354.251V312.859ZM354.251 284.889H370.936V308.043H354.251V284.889ZM354.251 257.104H370.936V280.258H354.251V257.104ZM354.251 229.133H370.936V252.288H354.251V229.133ZM334.51 229.133H351.196V252.288H334.51V229.133ZM334.51 257.104H351.196V280.258H334.51V257.104ZM334.51 284.889H351.196V308.043H334.51V284.889ZM334.51 312.859H351.196V336.013H334.51V312.859ZM334.51 340.644H351.196V363.798H334.51V340.644ZM334.51 368.614H351.196V391.768H334.51V368.614ZM334.51 396.399H351.196V419.553H334.51V396.399ZM334.51 424.369H351.196V447.523H334.51V424.369ZM334.51 452.154H351.196V475.308H334.51V452.154ZM410.3 475.308H393.614V452.154H410.3V475.308ZM410.3 447.338H393.614V424.184H410.3V447.338ZM410.3 419.553H393.614V396.399H410.3V419.553ZM410.3 391.583H393.614V368.429H410.3V391.583ZM410.3 363.798H393.614V340.644H410.3V363.798ZM410.3 336.013H393.614V312.859H410.3V336.013ZM410.3 308.043H393.614V284.889H410.3V308.043ZM410.3 280.258H393.614V257.104H410.3V280.258ZM410.3 252.288H393.614V229.133H410.3V252.288ZM410.3 224.503H393.614V201.348H410.3V224.503Z" fill="#EEFFFF"/>
<path d="M410.3 452.154H393.614V475.308H410.3V452.154Z" fill="#C8E8E2"/>
<path d="M410.3 424.369H393.614V447.523H410.3V424.369Z" fill="#C8E8E2"/>
<path d="M410.3 480.124H393.614V503.278H410.3V480.124Z" fill="#C8E8E2"/>
<path d="M410.3 312.859H393.614V336.013H410.3V312.859Z" fill="#C8E8E2"/>
<path d="M370.936 340.644H354.251V363.798H370.936V340.644Z" fill="#C8E8E2"/>
<path d="M410.3 340.644H393.614V363.798H410.3V340.644Z" fill="#C8E8E2"/>
<path d="M410.3 396.399H393.614V419.553H410.3V396.399Z" fill="#C8E8E2"/>
<path d="M463.646 312.859H451.073V336.013H463.646V312.859Z" fill="#C8E8E2"/>
<path d="M463.646 257.104H451.073V280.258H463.646V257.104Z" fill="#C8E8E2"/>
<path d="M463.646 284.889H451.073V308.043H463.646V284.889Z" fill="#C8E8E2"/>
<path d="M463.646 229.133H451.073V252.288H463.646V229.133Z" fill="#C8E8E2"/>
<path d="M463.646 201.348H451.073V224.503H463.646V201.348Z" fill="#C8E8E2"/>
<path d="M451.073 196.532H448.018H432.39V224.317V229.133V252.288V257.104V280.258V285.074V308.228V313.044V336.198V341.014V364.168V368.984V392.139V396.955V420.109V424.925V448.079V452.895V475.308V480.124V507.909H448.018H451.073H466.701V480.124V475.308V452.154V447.338V424.184V419.368V396.214V391.398V368.244V363.427V340.273V335.457V312.303V307.487V284.333V279.517V256.363V251.547V228.392V223.576V195.791H451.073V196.532ZM463.646 503.093H451.073V479.939H463.646V503.093ZM448.018 503.093H435.445V479.939H448.018V503.093ZM435.445 201.348H448.018V224.503H435.445V201.348ZM435.445 229.133H448.018V252.288H435.445V229.133ZM435.445 257.104H448.018V280.258H435.445V257.104ZM435.445 284.889H448.018V308.043H435.445V284.889ZM435.445 312.859H448.018V336.013H435.445V312.859ZM435.445 340.644H448.018V363.798H435.445V340.644ZM435.445 368.614H448.018V391.768H435.445V368.614ZM435.445 396.399H448.018V419.553H435.445V396.399ZM435.445 424.369H448.018V447.523H435.445V424.369ZM435.445 452.154H448.018V475.308H435.445V452.154ZM463.646 475.308H451.073V452.154H463.646V475.308ZM463.646 447.338H451.073V424.184H463.646V447.338ZM463.646 419.553H451.073V396.399H463.646V419.553ZM463.646 391.583H451.073V368.429H463.646V391.583ZM463.646 363.798H451.073V340.644H463.646V363.798ZM463.646 336.013H451.073V312.859H463.646V336.013ZM463.646 308.043H451.073V284.889H463.646V308.043ZM463.646 280.258H451.073V257.104H463.646V280.258ZM463.646 252.288H451.073V229.133H463.646V252.288ZM463.646 224.503H451.073V201.348H463.646V224.503Z" fill="#EEFFFF"/>
<path d="M463.646 340.644H451.073V363.798H463.646V340.644Z" fill="#C8E8E2"/>
<path d="M463.646 480.124H451.073V503.278H463.646V480.124Z" fill="#C8E8E2"/>
<path d="M448.018 480.124H435.445V503.278H448.018V480.124Z" fill="#C8E8E2"/>
<path d="M463.646 452.154H451.073V475.308H463.646V452.154Z" fill="#C8E8E2"/>
<path d="M463.646 424.369H451.073V447.523H463.646V424.369Z" fill="#C8E8E2"/>
<path d="M463.646 396.399H451.073V419.553H463.646V396.399Z" fill="#C8E8E2"/>
<path d="M463.646 368.614H451.073V391.768H463.646V368.614Z" fill="#C8E8E2"/>
<path d="M448.018 312.859H435.445V336.013H448.018V312.859Z" fill="#C8E8E2"/>
<path d="M448.018 368.614H435.445V391.768H448.018V368.614Z" fill="#C8E8E2"/>
<path d="M448.018 257.104H435.445V280.258H448.018V257.104Z" fill="#C8E8E2"/>
<path d="M448.018 284.889H435.445V308.043H448.018V284.889Z" fill="#C8E8E2"/>
<path d="M448.018 340.644H435.445V363.798H448.018V340.644Z" fill="#C8E8E2"/>
<path d="M448.018 452.154H435.445V475.308H448.018V452.154Z" fill="#C8E8E2"/>
<path d="M448.018 396.399H435.445V419.553H448.018V396.399Z" fill="#C8E8E2"/>
<path d="M448.018 424.369H435.445V447.523H448.018V424.369Z" fill="#C8E8E2"/>
<path d="M448.018 229.133H435.445V252.288H448.018V229.133Z" fill="#C8E8E2"/>
<path d="M448.018 201.348H435.445V224.503H448.018V201.348Z" fill="#C8E8E2"/>
<path d="M452.718 97.0622H442.965V117.994H452.718V97.0622Z" fill="#C8E8E2"/>
<path d="M439.91 97.0622H430.157V117.994H439.91V97.0622Z" fill="#C8E8E2"/>
<path d="M452.718 148.372H442.965V169.303H452.718V148.372Z" fill="#C8E8E2"/>
<path d="M452.718 122.624H442.965V143.556H452.718V122.624Z" fill="#C8E8E2"/>
<path d="M439.91 148.372H430.157V169.303H439.91V148.372Z" fill="#C8E8E2"/>
<path d="M442.965 173.934H455.773V148.372V143.556V122.624V117.808V92.2461H442.965H439.91H427.102V117.808V122.624V143.556V148.372V173.934H439.91H442.965ZM430.157 97.0622H439.91V117.994H430.157V97.0622ZM442.965 97.0622H452.718V117.994H442.965V97.0622ZM452.718 169.118H442.965V148.187H452.718V169.118ZM452.718 143.556H442.965V122.624H452.718V143.556ZM430.157 122.624H439.91V143.556H430.157V122.624ZM430.157 148.372H439.91V169.303H430.157V148.372Z" fill="#EEFFFF"/>
<path d="M439.91 122.624H430.157V143.556H439.91V122.624Z" fill="#C8E8E2"/>
<path d="M392.087 523.654H385.741L372.346 552.18V558.478H382.334L392.087 537.732V523.654Z" fill="#C8E8E2"/>
<path d="M373.991 523.654L372.346 526.988V541.992L380.924 523.654H373.991Z" fill="#C8E8E2"/>
<path d="M385.977 558.478H392.087V545.512L385.977 558.478Z" fill="#C8E8E2"/>
<path d="M392.087 558.478H411.71V523.654H402.309L392.087 545.512V558.478Z" fill="#C8E8E2"/>
<path d="M398.667 523.654H392.087V537.732L398.667 523.654Z" fill="#C8E8E2"/>
<path d="M433.918 523.654V528.841L436.385 523.654H433.918Z" fill="#C8E8E2"/>
<path d="M465.173 558.478V556.255L464.116 558.478H465.173Z" fill="#C8E8E2"/>
<path d="M465.173 529.952L451.661 558.478H461.061L465.173 549.957V529.952Z" fill="#C8E8E2"/>
<path opacity="0.63" d="M372.346 523.654V526.988L373.991 523.654H372.346Z" fill="white"/>
<path opacity="0.63" d="M380.924 523.654L372.346 541.992V552.18L385.741 523.654H380.924Z" fill="white"/>
<path opacity="0.63" d="M392.087 545.512V537.732L382.334 558.478H385.977L392.087 545.512Z" fill="white"/>
<path opacity="0.63" d="M392.087 545.512L402.309 523.654H398.667L392.087 537.732V545.512Z" fill="white"/>
<path opacity="0.63" d="M449.546 558.478V523.654H436.385L433.918 528.841V558.478H449.546Z" fill="white"/>
<path opacity="0.63" d="M465.173 523.654H449.546V558.478H451.661L465.173 529.952V523.654Z" fill="white"/>
<path opacity="0.63" d="M465.173 556.255V549.957L461.061 558.478H464.116L465.173 556.255Z" fill="white"/>
<g opacity="0.63">
<path opacity="0.63" d="M353.546 148.557L343.793 169.488L341.56 174.304H356.131H359.186H362.711L364.944 169.488L372.111 154.114L376.811 143.741L386.564 122.81L391.029 113.363L398.549 97.0622L400.782 92.2461H391.029H387.974H379.631L377.516 97.0622L375.049 102.249L372.111 108.732L367.764 117.994L365.531 122.81L359.186 136.517L356.131 143L355.778 143.741L353.546 148.557Z" fill="white"/>
<path opacity="0.63" d="M337.095 229.133L339.328 224.503L350.021 201.348L352.253 196.532H351.196H331.573V224.503V229.133V241.174L334.51 234.69L337.095 229.133Z" fill="white"/>
<path opacity="0.63" d="M353.663 97.0622L355.778 92.2461H340.268V117.994V122.81V125.773L343.91 117.994L353.663 97.0622Z" fill="white"/>
<path opacity="0.63" d="M397.727 122.81L391.029 137.258L387.974 143.741L385.741 148.557L375.989 169.488L373.756 174.304H375.049H377.164L379.396 169.488L387.974 150.965L391.382 143.741L401.017 122.81L403.249 117.994L403.837 116.697L406.892 110.214V102.99L403.837 109.473L399.959 117.994L397.727 122.81Z" fill="white"/>
<path opacity="0.63" d="M338.623 257.104L340.855 252.288L351.196 230.06L354.251 223.576L364.591 201.348L366.706 196.532H363.416L361.183 201.348L354.251 216.352L351.196 222.835L350.491 224.503L348.258 229.133L337.448 252.288L335.215 257.104L334.51 258.585L331.573 265.069V272.293L334.51 265.81L338.623 257.104Z" fill="white"/>
<path opacity="0.63" d="M435.445 443.078L444.258 424.369L446.373 419.553L448.018 416.034L451.073 409.55L457.183 396.399L459.416 391.583L463.646 382.321L466.701 375.838V368.614L463.646 375.282L456.008 391.583L453.776 396.399L451.073 402.326L448.018 408.81L443.083 419.553L440.85 424.369L435.445 436.039L432.39 442.522V449.746L435.445 443.078Z" fill="white"/>
<path opacity="0.63" d="M410.3 490.127L404.189 503.093L401.957 507.909H405.364L407.479 503.093L410.3 497.351L413.237 490.868V483.644L410.3 490.127Z" fill="white"/>
<path opacity="0.63" d="M435.445 459.563L438.853 452.154L441.085 447.338L448.018 432.519L451.073 426.036L451.895 424.369L454.128 419.553L463.646 398.807L466.701 392.324V391.583V385.1L463.646 391.583L461.413 396.399L451.073 418.812L448.018 425.295L437.795 447.338L435.563 452.154L435.445 452.339L432.39 459.008V466.047L435.445 459.563Z" fill="white"/>
<path opacity="0.63" d="M409.595 507.909H413.002L413.237 507.354V500.13L409.595 507.909Z" fill="white"/>
<path opacity="0.63" d="M403.249 174.304H406.657L406.892 173.563V166.339L403.249 174.304Z" fill="white"/>
<path opacity="0.63" d="M430.157 123.551L430.627 122.624L432.86 117.994L439.91 102.619L444.728 92.2461H442.965H441.32L439.088 97.0622L430.157 116.326L427.22 122.81V130.034L430.157 123.551Z" fill="white"/>
<path opacity="0.63" d="M342.148 312.859L344.381 308.043L351.196 293.409L354.251 286.926L355.191 284.889L357.306 280.258L368.116 257.104L370.349 252.288L370.936 251.176L373.874 244.508L381.041 229.133L383.274 224.503L390.559 208.758L393.614 202.275L393.967 201.348L396.199 196.532H393.614H392.909L390.559 201.534L379.866 224.503L377.634 229.133L373.874 237.284L370.936 243.767L366.941 252.288L364.709 257.104L354.251 279.702L351.196 286.185L340.973 308.043L338.858 312.859L334.51 321.935L331.573 328.418V335.642L334.51 329.159L342.148 312.859Z" fill="white"/>
<path opacity="0.63" d="M334.98 368.614L337.213 363.798L347.906 340.644L350.138 336.013L351.196 333.605L354.251 327.122L360.948 312.859L363.181 308.043L370.936 291.372L376.106 280.258L386.799 257.104L389.032 252.288L390.559 248.953L393.614 242.47L399.842 229.133L401.957 224.503L410.3 206.72L413.237 200.237V196.532H405.952L403.719 201.348L393.614 223.206L390.559 229.689L380.101 252.288L377.869 257.104L373.874 265.439L370.936 272.108L367.059 280.258L364.826 284.889L354.251 307.858L351.196 314.341L341.208 336.013L338.975 340.644L334.51 350.091L331.573 356.574V363.798V368.614V376.023L334.51 369.54L334.98 368.614Z" fill="white"/>
<path opacity="0.63" d="M430.157 163.746L437.443 148.372L439.675 143.556L439.91 142.815L442.965 136.332L449.31 122.624L451.543 117.994L452.718 115.4L455.773 108.917V92.2461H454.481L452.248 97.0622L442.965 117.067L439.91 123.551L430.627 143.556L427.22 150.965V170.229L430.157 163.746Z" fill="white"/>
<path opacity="0.63" d="M455.186 196.532L452.953 201.348L451.073 205.424L448.018 211.907L442.143 224.503L440.028 229.133L435.445 238.951L432.39 245.434V305.079L435.445 298.596L441.79 284.889L444.023 280.258L448.018 271.552L451.073 264.883L454.716 257.104L456.948 252.288L463.646 237.839L466.701 231.356V229.133V224.503V196.532H455.186Z" fill="white"/>
<path opacity="0.63" d="M410.3 293.224L403.367 308.043L401.134 312.859L393.614 328.974L390.559 335.457L390.324 336.013L388.092 340.644L377.399 363.798L375.166 368.614L373.874 371.207L370.936 377.69L364.474 391.583L362.241 396.399L354.251 413.626L349.198 424.369L338.505 447.338L336.273 452.154L334.51 455.859L331.573 462.342V475.308V480.124V507.909H338.035L340.268 503.093L351.078 480.124L354.251 473.271L364.003 452.154L366.236 447.338L370.936 437.335L373.874 430.852L376.929 424.369L379.161 419.553L389.972 396.399L393.614 388.619L402.897 368.614L405.129 363.798L410.3 352.684L413.237 346.201V286.556L410.3 293.224Z" fill="white"/>
<path opacity="0.63" d="M410.3 382.136L405.834 391.583L403.602 396.399L393.614 417.886L390.559 424.369L379.866 447.338L377.634 452.154L373.874 460.304L370.936 466.788L366.941 475.308L364.709 480.124L354.251 502.538L351.783 507.909H354.251H359.068L361.301 503.093L370.936 482.347L374.226 475.308L384.919 452.154L387.152 447.338L390.559 440.114L393.614 433.631L397.962 424.369L400.077 419.553L410.3 397.696L413.237 391.212V375.653L410.3 382.136Z" fill="white"/>
<path opacity="0.63" d="M435.445 343.608L436.738 340.644L438.97 336.013L448.018 316.563L452.013 308.043L462.706 284.889L466.701 276.368V260.623L463.646 267.291L457.653 280.258L455.421 284.889L451.073 294.335L448.018 300.819L444.728 308.043L442.495 312.859L435.445 328.048L432.39 334.531V350.091L435.445 343.608Z" fill="white"/>
<path opacity="0.63" d="M462.588 447.338L460.356 452.154L451.073 472.159L447.43 480.124L436.62 503.093L434.388 507.909H441.673L443.905 503.093L448.018 494.202L451.073 487.719L454.716 480.124L456.831 475.308L463.646 460.675L466.701 454.192V452.154V447.338V438.447L463.646 444.93L462.588 447.338Z" fill="white"/>
</g>
<path d="M406.539 0H387.504C386.564 0 385.624 0.18523 384.684 0.18523C397.844 1.48186 409.477 11.4845 417.35 26.6736H442.025C433.683 10.5583 420.875 0 406.539 0Z" fill="#0049BF"/>
<path d="M417.35 26.6736C423.812 39.0842 427.69 54.829 427.69 72.0557H452.365C452.365 54.829 448.488 39.0842 442.143 26.6736H417.35Z" fill="#0088DB"/>
<path d="M578.036 586H436.915C432.215 579.887 427.514 571.737 425.164 562.846C422.814 553.955 422.814 543.026 426.574 535.431C429.277 529.874 433.625 526.725 436.915 522.095C441.615 515.426 444.2 505.794 447.607 497.459C451.015 489.123 456.42 481.343 462.648 481.528C467.7 481.714 472.048 487.085 477.101 487.826C484.503 488.938 490.849 480.047 497.546 475.045C508.944 466.71 522.339 469.303 534.325 474.675C553.243 483.196 571.808 499.311 581.678 526.17C588.493 544.878 586.143 568.588 578.036 586Z" fill="url(#paint1_linear)"/>
<defs>
<linearGradient id="paint0_linear" x1="48.9909" y1="384.542" x2="48.9909" y2="578.271" gradientUnits="userSpaceOnUse">
<stop stop-color="#67E5D3"/>
<stop offset="1" stop-color="#27AA80"/>
</linearGradient>
<linearGradient id="paint1_linear" x1="504.544" y1="507.031" x2="504.544" y2="620.16" gradientUnits="userSpaceOnUse">
<stop stop-color="#7BB3FE"/>
<stop offset="1" stop-color="#9178FF"/>
</linearGradient>
</defs>
</svg>
